<svg id="visual" viewBox="0 0 900 600" width="900" height="600" xmlns="http://www.w3.org/2000/svg" xmlns:xlink="http://www.w3.org/1999/xlink" version="1.1"><rect x="0" y="0" width="900" height="600" fill="#1D3D6E"></rect><path d="M633 600L654 600L654 540L617 540L617 480L768 480L768 420L582 420L582 360L748 360L748 300L678 300L678 240L776 240L776 180L582 180L582 120L608 120L608 60L576 60L576 0L900 0L900 60L900 60L900 120L900 120L900 180L900 180L900 240L900 240L900 300L900 300L900 360L900 360L900 420L900 420L900 480L900 480L900 540L900 540L900 600L900 600Z" fill="#FEBA3F"></path></svg>